<svg width="14" height="18" viewBox="0 0 14 18" fill="none" xmlns="http://www.w3.org/2000/svg">
    <path d="M9 1V0H5V1H0V3H14V1H9Z" fill="#757575"/>
    <path d="M3 18H11L13 4.00098H1L3 18ZM9.503 5.95098C9.53 5.67598 9.774 5.47598 10.05 5.50398C10.324 5.53098 10.526 5.77498 10.498 6.05098L9.497 16.051C9.47 16.324 9.226 16.526 8.95 16.498C8.674 16.47 8.475 16.225 8.503 15.951L9.503 5.95098ZM6.5 6.00098C6.5 5.72498 6.724 5.50098 7 5.50098C7.276 5.50098 7.5 5.72498 7.5 6.00098V16C7.5 16.275 7.276 16.5 7 16.5C6.724 16.5 6.5 16.275 6.5 16V6.00098ZM3.95 5.50398C4.225 5.47698 4.47 5.67598 4.497 5.95098L5.497 15.951C5.524 16.224 5.325 16.471 5.05 16.498C4.775 16.525 4.53 16.324 4.503 16.051L3.503 6.05098C3.476 5.77498 3.675 5.53098 3.95 5.50398Z" fill="#757575"/>
</svg>
