<svg width="18" height="18" viewBox="0 0 18 18" fill="none" xmlns="http://www.w3.org/2000/svg">
    <path d="M17.7307 16.4322L12.3604 11.0637C13.2757 9.8685 13.7779 8.4195 13.7779 6.8895C13.7779 5.0499 13.0597 3.3192 11.7593 2.0178C10.4579 0.7164 8.72899 0 6.88851 0C5.04804 0 3.31916 0.7164 2.01867 2.0187C0.716391 3.3192 0 5.0499 0 6.8895C0 8.7291 0.716391 10.4589 2.01867 11.7612C3.32006 13.0626 5.04984 13.779 6.88941 13.779C8.4185 13.779 9.86838 13.2777 11.0627 12.3633L16.4329 17.7318C16.6111 17.91 16.846 18 17.0809 18C17.3158 18 17.5507 17.91 17.7307 17.7309C18.0898 17.3727 18.0898 16.7904 17.7307 16.4322ZM3.31736 10.4616C2.36247 9.5067 1.83688 8.2386 1.83688 6.8895C1.83688 5.5404 2.36247 4.2714 3.31736 3.3174C4.27045 2.3625 5.53853 1.8369 6.88761 1.8369C8.2376 1.8369 9.50568 2.3625 10.4606 3.3174C11.4155 4.2723 11.9411 5.5404 11.9411 6.8904C11.9411 8.2395 11.4155 9.5076 10.4606 10.4625C9.50478 11.4174 8.2367 11.943 6.88761 11.943C5.53853 11.943 4.27135 11.4165 3.31736 10.4616Z" fill="#757575"/>
</svg>
